<?xml version="1.0"?><svg version="1.2" baseProfile="tiny-ps" viewBox="0 0 59 49" xmlns="http://www.w3.org/2000/svg" xmlns:xlink="http://www.w3.org/1999/xlink"><title>A logo</title>
<g><g fill="#f6f6f6" transform="matrix(.1 0 0 -.1 0 69)"><path d="M0 345V0h690v690H0V345z"/></g><g fill="#f0c201" transform="matrix(.1 0 0 -.1 0 69)"><path d="M0 345V0h690l-1 158v157l-14-45-14-46-36-42c-20-23-40-42-45-42s-41 56-80 125c-40 69-76 125-80 125-10 0-47-58-52-80l-3-14 34-6 34-5 5-12 4-13H310v11c0 13 102 189 110 189 3-1 39-60 80-132s80-133 87-135l11-4 26 43 25 43 7 42 6 42-12 50-12 50-38 44-38 43 8 14 9 14 21-19c27-24 60-78 76-124l13-36 1 148v147H0V345z"/></g><g fill="#aaa" transform="matrix(.1 0 0 -.1 0 69)"><path d="M0 345V0h690l-1 158v157l-14-45-14-46-36-42c-20-23-40-42-45-42s-41 56-80 125c-40 69-76 125-80 125-10 0-47-58-52-80l-3-14 34-6 34-5 5-12 4-13H310v11c0 13 102 189 110 189 3-1 39-60 80-132s80-133 87-135l11-4 26 43 25 43 7 42 6 42-12 50-12 50-38 44-38 43 8 14 9 14 21-19c27-24 60-78 76-124l13-36 1 148v147H0V345zm505 265 27-10-5-13-4-12-19 3c-10 2-40 6-65 9l-47 5-50-16-49-17-38-37c-20-20-44-50-52-66l-15-29-5-56-5-57 22-52 23-52 35-31c20-17 51-38 71-46l35-15 80 4 79 3 4-11 4-12-51-12-51-12-47 7c-53 8-105 32-150 70l-30 25-26 52-26 52v131l24 50 24 50 33 32c19 17 54 41 79 52l45 21h124l26-10z"/></g><g fill="#88752f" transform="matrix(.1 0 0 -.1 0 69)"><path d="M0 345V0h690v285l-19-41c-19-42-77-114-91-114-5 0-41 56-80 125-40 69-76 125-80 125-8 0-50-62-50-74 0-3 13-6 30-6h29l11-20 11-20h-76c-41 0-75 3-75 6 0 11 112 204 119 204 3 0 40-60 82-133l76-132h26l24 44 23 44v118l-21 41c-11 22-32 52-46 65l-24 25 5 14c3 8 10 14 17 14 17 0 64-55 87-102l21-43 1 133v132H0V345zm505 265 27-10-5-13-4-12-19 3c-10 2-40 6-65 9l-47 5-50-16-49-17-38-37c-20-20-44-50-52-66l-15-29-5-56-5-57 22-52 23-52 35-31c20-17 51-38 71-46l35-15 80 4 79 3 4-11 4-12-51-12-51-12-47 7c-53 8-105 32-150 70l-30 25-26 52-26 52v131l24 50 24 50 33 32c19 17 54 41 79 52l45 21h124l26-10z"/></g><g fill="#494126" transform="matrix(.1 0 0 -.1 0 69)"><path d="M0 345V0h690v275l-20-41c-11-22-36-55-54-73l-34-33-10 6c-5 3-40 60-78 126s-72 120-76 120-17-18-28-40l-20-40h58l12-15 12-14-7-11-6-10H301l-4 8c-6 8 106 205 119 209l10 3 78-135c43-74 82-135 86-135 5 0 20 23 34 52l26 52v40c0 23-5 58-11 80l-11 38-39 42-39 43 14 19 15 19 30-29c17-17 42-52 56-80l25-50v264H0V345zm513 266 28-11-11-20-11-20-19 10-19 10H360l-45-21-45-21-27-32c-14-17-32-45-40-63l-13-32V295l19-41 18-40 42-35 41-36 39-11c47-15 101-15 137-2l26 10 14-11c21-17 17-26-17-38l-32-11H355l-50 24-50 23-34 34c-19 19-44 54-55 79l-20 45v140l23 45c39 76 95 123 181 151l25 8 55-3c30-2 68-9 83-15z"/></g><g fill="#07060e" transform="matrix(.1 0 0 -.1 0 69)"><path d="M0 345V0h690v265l-20-41c-11-22-36-56-55-74l-35-34-9 10c-5 5-39 61-76 124s-70 118-74 123l-7 7-17-35-17-35h39l20-22 20-21-5-9-5-8H290v10c0 14 121 220 129 220 3 0 42-63 86-139l79-139 8 4c5 3 17 23 28 44l20 39v125l-21 43c-11 24-32 52-46 63l-25 19 7 21 6 20h13c16 0 79-67 99-105l16-30 1 123v122H0V345zm509 274 31-11v-11c0-7-4-18-9-26l-9-14-32 12c-18 6-51 11-74 11h-41l-51-24-50-23-31-38-31-37-12-44-13-44 7-47 6-46 25-44 26-43 52-30 52-30h57c31 0 68 4 82 9l24 10 12-14 12-15-5-14-6-15-38-10c-54-15-103-14-162 6l-52 16-46 41-46 40-23 51-24 50v133l14 33c31 73 103 143 171 167 17 6 57 11 91 11l61 1 32-11z"/></g></g></svg>