<svg width="16" height="16" viewBox="0 0 16 16" fill="#000000" xmlns="http://www.w3.org/2000/svg">
    <path d="M8 0C3.582 0 0 3.582 0 8c0 3.535 2.29 6.532 5.471 7.59 0.4 0.074 0.547-0.174 0.547-0.384 0-0.19-0.007-0.873-0.013-1.594-2.225 0.483-2.695-1.072-2.695-1.072-0.364-0.925-0.887-1.172-0.887-1.172-0.725-0.496 0.054-0.486 0.054-0.486 0.803 0.057 1.227 0.827 1.227 0.827 0.714 1.223 1.876 0.871 2.33 0.664 0.072-0.517 0.28-0.871 0.509-1.070-1.787-0.204-3.655-0.893-3.655-3.964 0-0.875 0.312-1.592 0.827-2.155-0.082-0.204-0.36-1.022 0.079-2.128 0 0 0.676-0.216 2.213 0.827 0.643-0.179 1.328-0.268 2.004-0.271 0.676 0.003 1.361 0.092 2.004 0.271 1.537-1.042 2.213-0.827 2.213-0.827 0.439 1.106 0.16 1.924 0.079 2.128 0.516 0.562 0.827 1.28 0.827 2.155 0 3.078-1.87 3.757-3.661 3.958 0.288 0.249 0.54 0.739 0.54 1.488 0 1.077-0.010 1.943-0.010 2.204 0 0.21 0.143 0.461 0.548 0.382C13.71 14.532 16 11.535 16 8c0-4.418-3.582-8-8-8z"/>
</svg>
